Coordinates
version=1
nRows=12
nColumns=24
inDegrees=yes

Units are S.I. units (second, meters, Newtons, ...)
Angles are in degrees.

endheader
time	pelvis_tilt	pelvis_list	pelvis_rotation	pelvis_tx	pelvis_ty	pelvis_tz	hip_flexion_r	hip_adduction_r	hip_rotation_r	knee_angle_r	ankle_angle_r	subtalar_angle_r	mtp_angle_r	hip_flexion_l	hip_adduction_l	hip_rotation_l	knee_angle_l	ankle_angle_l	subtalar_angle_l	mtp_angle_l	lumbar_extension	lumbar_bending	lumbar_rotation
      1.00783333	     -1.67127038	     -5.19323709	      2.54681454	      0.45614371	      1.00088279	      0.30413023	     11.88964665	      8.94137226	      0.69168260	    -21.21844766	     13.02925941	    -11.43642049	     -5.73560155	     13.72885742	     -6.44512791	      1.69380929	    -69.42380387	     -5.32028464	     -0.39212433	     -0.02534672	     -8.96735228	     16.14761855	     -4.61726299
      1.01200000	     -1.60059497	     -4.99964323	      2.35826341	      0.46077979	      1.00196530	      0.30462494	     11.25951564	      8.79983857	      0.90805081	    -20.72695876	     13.04436512	    -11.35605048	     -5.70141480	     14.21417838	     -6.28809104	      1.49713088	    -69.24693714	     -4.24083796	     -0.07331449	     -0.00003916	     -9.12502707	     15.84295755	     -4.21612335
      1.01616667	     -1.54077705	     -4.80787827	      2.17384949	      0.46542045	      1.00301131	      0.30510378	     10.63801643	      8.65328960	      1.12398422	    -20.22605610	     13.04899294	    -11.28515685	     -5.66721927	     14.70265036	     -6.13612923	      1.29671591	    -69.02125655	     -3.19761795	      0.22324871	      0.01573457	     -9.26912461	     15.53842404	     -3.82458381
      1.02033333	     -1.48815700	     -4.60986740	      1.98585471	      0.47005662	      1.00401690	      0.30557524	     10.02626889	      8.49435952	      1.33168540	    -19.72546427	     13.05271878	    -11.20700262	     -5.63200810	     15.18928268	     -5.97852107	      1.09033724	    -68.75043808	     -2.18452964	      0.50549685	      0.02149373	     -9.39850556	     15.22885778	     -3.43645015
      1.02450000	     -1.40042883	     -4.42349396	      1.79208581	      0.47469076	      1.00505368	      0.30603941	      9.36744885	      8.34503892	      1.55251019	    -19.19621609	     13.00687371	    -11.13900765	     -5.57449330	     15.62567556	     -5.84074831	      0.86827304	    -68.42967528	     -1.21677740	      0.71813974	     -0.00379774	     -9.58617990	     14.92658113	     -2.96200086
      1.02866667	     -1.33980556	     -4.21724902	      1.61408055	      0.47932404	      1.00601197	      0.30647096	      8.74803363	      8.16260682	      1.73732864	    -18.69117102	     13.03758609	    -11.04274419	     -5.53697750	     16.08459947	     -5.67509063	      0.66443484	    -68.06442694	     -0.27888895	      0.99623103	     -0.01820612	     -9.70223355	     14.62009749	     -2.67240434
      1.03283333	     -1.25937001	     -4.03015408	      1.42203267	      0.48395087	      1.00696595	      0.30690809	      8.10109661	      7.99929186	      1.94406185	    -18.16192761	     12.99620185	    -10.95678016	     -5.47879783	     16.51120655	     -5.53808690	      0.43938152	    -67.65797204	      0.61407553	      1.17792147	     -0.07256552	     -9.87466319	     14.32082075	     -2.22644019
      1.03700000	     -1.18215233	     -3.82453975	      1.23796424	      0.48858022	      1.00789377	      0.30731435	      7.46409183	      7.80668547	      2.12698481	    -17.64584966	     12.99187875	    -10.84798800	     -5.42142852	     16.92827640	     -5.37619050	      0.22242278	    -67.19844125	      1.45512547	      1.36277681	     -0.13701657	    -10.02132266	     14.01073352	     -1.87338384
      1.04116667	     -1.09803317	     -3.61896673	      1.06162642	      0.49320286	      1.00878026	      0.30770185	      6.82562820	      7.60800782	      2.29213793	    -17.13821723	     13.01405647	    -10.73796056	     -5.38242953	     17.33087125	     -5.21392095	      0.01103780	    -66.69922467	      2.25346980	      1.55545168	     -0.18153360	    -10.16298106	     13.70285677	     -1.58832937
      1.04533333	     -1.02482404	     -3.41590460	      0.87914077	      0.49782436	      1.00962554	      0.30807552	      6.19914141	      7.40587002	      2.46238098	    -16.62525184	     13.00650004	    -10.61749189	     -5.34180829	     17.73258556	     -5.05158392	     -0.20080666	    -66.15569533	      2.99638879	      1.67360008	     -0.24029443	    -10.30501766	     13.39299548	     -1.23672395
      1.04950000	     -0.93895162	     -3.22673806	      0.70253789	      0.50244077	      1.01043280	      0.30843249	      5.56042952	      7.21330014	      2.62174102	    -16.10875025	     12.99759907	    -10.49440390	     -5.29871685	     18.11436884	     -4.90448343	     -0.40672116	    -65.57840011	      3.69452100	      1.76087985	     -0.31195701	    -10.45827353	     13.10182377	     -0.89175392
      1.05366667	     -0.84042548	     -3.04350551	      0.51900587	      0.50704819	      1.01123024	      0.30876907	      4.91069207	      7.02070791	      2.78653801	    -15.59005167	     12.96572645	    -10.35879667	     -5.24098385	     18.46796366	     -4.75874880	     -0.60814010	    -64.95479354	      4.34106211	      1.77511638	     -0.42528128	    -10.63366598	     12.82837560	     -0.51423244
